<svg width="40" height="40" viewBox="0 0 40 40" fill="none" xmlns="http://www.w3.org/2000/svg">
<path d="M30.2283 23.7403C30.2283 25.5165 30.2283 27.3019 30.2283 29.0781C30.2283 29.8419 29.9062 30.1732 29.1331 30.1732C27.0624 30.1824 24.9917 30.1824 22.9211 30.1732C22.2032 30.1732 21.8903 29.8419 21.8811 29.1241C21.8719 27.8172 21.8995 26.5196 21.8719 25.2128C21.8443 23.7955 20.4178 22.958 19.1846 23.6023C18.5036 23.9612 18.2091 24.5502 18.2091 25.3048C18.2091 26.5288 18.2091 27.762 18.2091 28.986C18.2091 29.8879 17.933 30.1732 17.0403 30.1732C15.0801 30.1732 13.1198 30.1732 11.1504 30.1732C10.2669 30.1732 10 29.8971 10 29.0136C10 25.5349 10.0184 22.0469 10 18.5682C10 17.5651 10.3773 16.8104 11.1964 16.2306C13.9573 14.2612 16.6906 12.2641 19.4423 10.2855C19.9761 9.89893 20.2798 9.90813 20.8136 10.2947C23.5653 12.2733 26.2986 14.2704 29.0595 16.2398C29.8786 16.8288 30.2559 17.5835 30.2375 18.5866C30.2099 20.3076 30.2283 22.0193 30.2283 23.7403ZM11.6842 28.4154C13.3407 28.4154 14.9328 28.4154 16.5802 28.4154C16.5802 27.3479 16.571 26.3079 16.5802 25.268C16.5986 23.2709 18.1447 21.7156 20.0957 21.7064C22.0468 21.7064 23.5929 23.2617 23.6205 25.2588C23.6297 26.1607 23.6389 27.0718 23.6113 27.9737C23.6021 28.3602 23.6849 28.5167 24.1082 28.5075C25.4151 28.4799 26.7127 28.4983 28.0195 28.4983C28.1668 28.4983 28.314 28.4799 28.5073 28.4707C28.5073 28.2406 28.5073 28.0381 28.5073 27.8449C28.5073 24.7986 28.4981 21.7432 28.5165 18.697C28.5165 18.2001 28.3601 17.8688 27.9551 17.5835C25.4243 15.7705 22.9119 13.9391 20.3994 12.1077C20.1509 11.9236 19.9853 11.9696 19.7644 12.1261C17.2612 13.9207 14.7488 15.7337 12.2271 17.5375C11.8406 17.8135 11.675 18.1356 11.675 18.6142C11.6934 21.6972 11.6842 24.7802 11.6842 27.8541C11.6842 28.0381 11.6842 28.213 11.6842 28.4154Z" fill="#C4C4C4"/>
<path d="M11.6841 28.4164C11.6841 28.2139 11.6841 28.0298 11.6841 27.855C11.6841 24.772 11.6933 21.6889 11.6749 18.6151C11.6749 18.1366 11.8406 17.8145 12.2271 17.5384C14.7487 15.7438 17.2612 13.9308 19.7644 12.1178C19.9945 11.9521 20.1509 11.9153 20.3994 12.0994C22.9118 13.94 25.4243 15.7622 27.9551 17.5752C28.36 17.8697 28.5165 18.1918 28.5165 18.6887C28.4981 21.735 28.5073 24.7904 28.5073 27.8366C28.5073 28.0298 28.5073 28.2323 28.5073 28.4624C28.314 28.4716 28.1668 28.49 28.0195 28.49C26.7127 28.49 25.4151 28.4716 24.1082 28.4992C23.6849 28.5084 23.5929 28.3519 23.6113 27.9654C23.6389 27.0635 23.6297 26.1524 23.6205 25.2505C23.5929 23.2535 22.0467 21.6981 20.0957 21.6981C18.1447 21.6981 16.5986 23.2535 16.5801 25.2597C16.5709 26.2997 16.5801 27.3396 16.5801 28.4072C14.9328 28.4164 13.3407 28.4164 11.6841 28.4164Z" fill="#C4C4C4"/>
</svg>
