<svg width="40" height="40" viewBox="0 0 40 40" fill="none" xmlns="http://www.w3.org/2000/svg">
<path d="M17.3353 19.0139C17.3353 17.4178 17.3353 15.8156 17.3353 14.2195C17.3353 12.813 17.3292 11.4065 17.3353 9.99993C17.3353 8.87471 18.1975 8.00021 19.2922 8.00021C20.344 7.9941 21.2369 8.89917 21.243 9.9877C21.2552 11.7306 21.243 13.4734 21.243 15.2163C21.243 15.3264 21.243 15.4365 21.243 15.5649C21.4387 15.5037 21.6099 15.4303 21.7872 15.3937C22.8146 15.1674 23.8359 15.785 24.0988 16.8002C24.1478 16.9959 24.1722 17.0631 24.3985 16.9653C25.4992 16.4944 26.7284 17.1121 27.0403 18.2923C27.0954 18.5002 27.1443 18.5186 27.3339 18.433C28.5569 17.9193 29.9879 18.7632 30.0307 20.0841C30.0796 21.8453 30.153 23.6127 29.994 25.3678C29.6821 28.7496 27.1382 31.5687 23.8298 32.272C19.3595 33.226 14.9748 30.0766 14.4549 25.5329C14.2226 23.5271 13.77 21.5579 13.3725 19.5827C13.1952 18.7265 13.3848 17.9988 14.088 17.4606C15.1704 16.6351 16.736 17.161 17.1335 18.4636C17.1885 18.647 17.2313 18.8305 17.2802 19.0201C17.2986 19.0139 17.3169 19.0139 17.3353 19.0139Z" fill="#DADADA"/>
<path d="M11.7581 10.9297C13.2441 10.9297 14.7301 10.9297 16.2161 10.9297C16.4302 10.9297 16.6259 10.9603 16.7543 11.1498C16.8583 11.3088 16.8705 11.474 16.7788 11.6452C16.6748 11.8348 16.5036 11.9081 16.2956 11.902C15.3478 11.902 14.3999 11.902 13.452 11.902C12.8833 11.902 12.3207 11.902 11.752 11.902C11.7336 11.9326 11.7153 11.9571 11.6969 11.9876C11.9721 12.2506 12.2534 12.5074 12.5286 12.7704C12.6264 12.8621 12.7182 12.9539 12.8038 13.0578C12.975 13.2719 12.9628 13.5409 12.7671 13.7183C12.5653 13.9017 12.3268 13.9262 12.1311 13.7366C11.4584 13.0884 10.798 12.4279 10.1436 11.7553C9.9357 11.5412 9.96016 11.2599 10.1742 11.0398C10.8102 10.3977 11.4401 9.76777 12.0822 9.13789C12.3084 8.91774 12.5898 8.92997 12.7916 9.13178C12.9811 9.32135 12.9811 9.59043 12.7732 9.8167C12.602 10.0063 12.4185 10.1775 12.2351 10.3548C12.0638 10.52 11.8865 10.6851 11.7091 10.8502C11.7275 10.8808 11.7397 10.9052 11.7581 10.9297Z" fill="#DADADA"/>
<path d="M27.132 10.9299C25.646 10.9299 24.1599 10.9299 22.6739 10.9299C22.4599 10.9299 22.2642 10.9605 22.1358 11.15C22.0318 11.309 22.0196 11.4741 22.1113 11.6454C22.2153 11.835 22.3865 11.9083 22.5944 11.9022C23.5423 11.9022 24.4902 11.9022 25.438 11.9022C26.0068 11.9022 26.5694 11.9022 27.1381 11.9022C27.1565 11.9328 27.1748 11.9573 27.1931 11.9878C26.918 12.2508 26.6366 12.5076 26.3615 12.7706C26.2636 12.8623 26.1719 12.9541 26.0863 13.058C25.915 13.2721 25.9273 13.5411 26.123 13.7185C26.3248 13.9019 26.5633 13.9264 26.759 13.7368C27.4316 13.0825 28.0982 12.422 28.7464 11.7493C28.9544 11.5353 28.9299 11.254 28.7159 11.0338C28.086 10.3917 27.4561 9.76185 26.814 9.13197C26.5877 8.91182 26.3064 8.92405 26.1046 9.12586C25.915 9.31543 25.915 9.58451 26.123 9.81078C26.2942 10.0004 26.4776 10.1716 26.6611 10.3489C26.8323 10.514 27.0097 10.6792 27.187 10.8443C27.1687 10.881 27.1503 10.9054 27.132 10.9299Z" fill="#DADADA"/>
</svg>
